<?xml version="1.0" encoding="UTF-8"?>
<!-- Created with Inkscape (http://www.inkscape.org/) -->
<svg width="210mm" height="297mm" version="1.1" viewBox="0 0 210 297" xml:space="preserve" xmlns="http://www.w3.org/2000/svg" xmlns:xlink="http://www.w3.org/1999/xlink"><path transform="matrix(.33711 .00087713 .0094526 -.47021 96.838 200.35)" d="m-6.2456 75.03-8.8286-11.081 77.328-8.22e-4 -8.8292 11.083-3.7848-4.66e-4 0.086497-3.0848 1.5589 0.002908 0.054357-1.9386-1.5589-0.002908 0.064434-2.2979-2.8465-0.00531-0.064433 2.2979-8.9702-0.016733-0.050906 1.8155 1.9942 3.2304-7.9911-6.2e-4c0.43314-0.19748 0.8078-0.44846 1.1203-0.75623 0.64693-0.62108 0.98394-1.4144 1.011-2.3786l0.006903-0.24617c0.036621-1.306-0.45585-2.3183-1.4753-3.0382-1.0195-0.71993-2.4772-1.0817-4.3752-1.0852-1.1731-0.002188-2.2074 0.14558-3.1028 0.44481-0.88609 0.30606-1.6053 0.7458-2.1555 1.3192-0.55021 0.57339-0.91313 1.2702-1.0887 2.0905l2.9768 0.005553c0.15155-0.64252 0.51666-1.1137 1.0974-1.4135 0.5805-0.29296 1.32-0.43824 2.2166-0.43657 0.9633 0.001797 1.7063 0.18782 2.2301 0.55806 0.52375 0.37024 0.77674 0.8908 0.75795 1.5609l-0.012634 0.45057c-0.020899 0.74534-0.29027 1.3193-0.80707 1.7218-0.517 0.40933-1.2381 0.61314-2.1632 0.61141l-1.4731-0.002748-0.016671 0.59454-8.7683 1.29e-4c-0.16631-0.3299-0.35775-0.65764-0.57645-0.9814l-4.2554-6.3976-3.1469-0.00587 4.4515 6.5628c-0.15269-0.084873-0.31824-0.15922-0.509-0.21636-0.48239-0.1445-1.0441-0.21736-1.6832-0.21855-1.4974-0.002793-2.7145 0.39083-3.6524 1.1823-0.027956 0.023792-0.051582 0.050331-0.078737 0.074586l-5.589 5.64e-4 0.20744-7.3982-2.9185-0.005444-0.2076 7.4037-6.1823-5.42e-4zm49.221 5.98e-4 -1.889-3.1017 5.7941 0.010808-0.086651 3.0903-3.8185 5.7e-4z" fill="#222" stroke="#222" stroke-width=".31183"/><path transform="matrix(.33711 -.00087713 .0094526 .47021 96.733 129.81)" d="m62.255 63.949-77.328-2.77e-4 8.8286 11.081 6.4582-4.2e-5 0.14646-5.2234-2.998 1.2978 0.060705-2.165 3.0011-1.4099 2.9185 0.005444-0.21016 7.4949 5.5446 4.52e-4c-0.81077-0.7875-1.2032-1.8076-1.168-3.0662l3.082e-4 -0.01099c0.040648-1.4496 0.57861-2.5698 1.6118-3.3611 1.043-0.79813 2.4848-1.1955 4.3256-1.1921 1.8408 0.003434 3.2543 0.40917 4.2427 1.2179 0.98856 0.80192 1.4632 1.9384 1.422 3.4085l-3.08e-4 0.010989c-0.017065 0.60858-0.16006 1.2679-0.42798 1.9785-0.1299 0.34149-0.28786 0.67966-0.47146 1.0146l8.7269-2.06e-4 0.036053-1.2858 1.4746 0.002751c0.82024 0.00153 1.4546-0.17166 1.9031-0.51958 0.45805-0.34789 0.69497-0.83982 0.7128-1.4758l0.012943-0.46156c0.016489-0.58807-0.20815-1.044-0.67603-1.3662-0.45833-0.32224-1.122-0.48346-1.9899-0.48508-0.7344-0.00137-1.3638 0.14718-1.8873 0.44708-0.51375 0.2931-0.8745 0.76122-1.0833 1.4036l-2.9614-0.005524c0.33018-1.2303 1.015-2.1799 2.0543-2.8481 1.0491-0.67504 2.3605-1.0111 3.9342-1.0082 1.7931 0.003345 3.1713 0.34441 4.1347 1.0232 0.96339 0.67879 1.4273 1.6336 1.3928 2.8644l-0.006902 0.24617c-0.020899 0.74534-0.31948 1.3952-0.89773 1.948-0.57805 0.54599-1.3863 0.94758-2.4236 1.2055 0.44772 0.068555 0.85264 0.17409 1.2175 0.31439l8.4019 2.86e-4 5.0011-7.4057 3.0044 0.005605-4.9335 7.4004 3.7097 3.26e-4 0.035591-1.2693 2.848 0.005313-0.035437 1.2638 3.5089-4.9e-5 8.8292-11.081zm-48.865 5.4611c-0.92515-0.001726-1.6465 0.21233-2.1641 0.64218-0.50805 0.42986-0.77268 1.0418-0.79492 1.835l-3.09e-4 0.010989c-0.022624 0.80688 0.20729 1.433 0.6908 1.8784 0.49321 0.43857 1.2024 0.65836 2.1276 0.66008 0.91561 0.001708 1.6271-0.21958 2.1356-0.66312 0.51797-0.44352 0.78876-1.0687 0.81139-1.8756l2.77e-4 -0.009891c0.02205-0.78636-0.21412-1.3962-0.70754-1.8279-0.48387-0.43172-1.1831-0.64843-2.0987-0.65014z" fill="#222" stroke="#222" stroke-width=".31183"/><ellipse transform="rotate(193.72)" cx="-133.36" cy="-104.36" rx="51.148" ry="51.148" fill-opacity="0" stroke-opacity="0"/><path d="m71.539 102.53c1.1289-2.95 2.2343-5.4522 1.63-8.6931-1.9855 1.616-3.7938 3.6367-4.4906 6.1576-0.24331 0.88025-0.36676 1.8042-0.29312 2.7166 0.06206 0.76902 0.34767 1.5837 0.1883 2.3544-0.22171 1.0722-1.1728 1.9899-1.7433 2.8977h-0.18111c0.56871-2.4706 0.334-4.6988-0.54332-7.0631-1.8516 1.8191-3.2477 4.786-3.1698 7.4254 0.04136 1.4014 0.91686 2.6272 0.95432 3.9843 0.02871 1.0401-0.63791 2.0886-1.2255 2.8977-0.02847-2.3637-0.6806-4.2775-1.8111-6.3387h-0.36221c-1.1966 2.3959-2.0242 5.495-1.1954 8.1498 0.39861 1.2769 1.5655 2.3145 1.7834 3.6221 0.21768 1.3064-0.42536 2.8598-0.58801 4.1654h-0.18111c-0.13259-2.8-1.0724-5.739-3.441-7.4254-0.90287 2.5236-1.0086 6.1952 0.4817 8.5102 0.71463 1.1101 2.1582 1.8545 2.6048 3.1056 0.55847 1.5645 0.06229 3.6087-0.0077 5.227h-0.18111c-0.33303-3.242-1.8726-6.4694-4.8899-7.9687 0 2.1638-0.28317 4.5289 0.73455 6.5198 0.54168 1.0596 1.3696 1.9927 2.3454 2.6722 0.60274 0.41971 1.4195 0.67487 1.8626 1.2879 0.87409 1.2092 0.7339 3.6504 0.85285 5.0952h-0.18111c-0.88321-3.138-3.0551-5.372-5.9765-6.7009-0.41711 2.7094 0.89725 6.1314 3.0849 7.7765 0.97405 0.73246 2.5746 0.88616 3.3556 1.7991 0.83389 0.97474 0.96002 2.8036 1.347 4.0074h-0.18111c-1.5305-2.5684-3.6795-3.9411-6.5198-4.7088-0.18553 2.7493 1.9267 5.9525 4.3469 7.1478 0.99516 0.49151 2.4144 0.3664 3.272 1.0595 0.89827 0.72599 1.2836 2.2005 1.7985 3.2023l-3.8032-2.3089-3.0788-0.58883c0.07323 2.7595 2.9109 5.5542 5.4332 6.3321 1.061 0.32726 2.4266 0.0865 3.3851 0.64822 0.95068 0.55719 1.574 1.762 2.2292 2.6183-2.3619-1.25-4.5693-1.8533-7.2442-1.4488 1.0432 2.4822 3.6198 4.7584 6.3387 5.169 1.1788 0.17803 2.6536-0.34619 3.7508 0.10641 0.98324 0.40559 1.8179 1.4405 2.5879 2.1499-2.4402-0.84109-5.0135-1.0391-7.4253 0 2.0069 2.3834 4.6445 3.8668 7.7876 3.7959 1.1166-0.0252 2.3542-0.67278 3.441-0.44954 1.0331 0.2122 1.9815 1.0457 2.8977 1.5435v0.18111c-2.5973-0.51658-4.8972-0.1479-7.2442 1.0866 1.7901 2.3656 5.6971 3.3394 8.512 2.684 1.1097-0.25837 2.1301-1.1475 3.2599-1.2178 1.2205-0.076 2.6201 0.77405 3.8032 1.0693v0.18111c-2.7188 3e-3 -5.8633 0.35572-7.6065 2.7166 2.6705 1.4047 5.9757 2.1347 8.8742 1.0116 1.5358-0.59508 2.8158-2.3536 4.5277-2.2832 1.3899 0.0571 3.6069 0.11383 4.8073 0.83422 1.388 0.83296 3.0531 3.003 4.7913 2.9466 1.6235-0.0526 3.197-1.9967 4.5276-2.7854 1.0785-0.63927 2.2391-0.58928 3.441-0.74841 0.71007-0.094 1.4532-0.30206 2.1733-0.24679 1.5033 0.11539 2.7676 1.69 4.1654 2.2461 2.975 1.1835 6.2636 0.33833 9.0553-0.9747-2.0779-2.245-4.8653-2.669-7.7876-2.7166v-0.18111c1.2171-0.26296 2.5605-1.1196 3.8032-1.0686 1.2502 0.0513 2.3693 1.0652 3.6221 1.2909 3.0672 0.55257 5.8169-0.79489 8.3309-2.3956v-0.36222c-2.4842-1.2031-4.7096-1.5491-7.4254-1.0866v-0.18111c0.97474-0.48796 1.9948-1.4054 3.0788-1.5891 1.0849-0.18384 2.3199 0.47378 3.441 0.4959 3.0665 0.0605 5.6593-1.4792 7.6064-3.7967-2.4388-1.0686-4.9497-0.79478-7.4253 0 0.81675-0.73078 1.6803-1.7438 2.7166-2.1534 1.0927-0.43183 2.462 0.0575 3.6221-0.11433 2.7155-0.40217 5.3479-2.6322 6.3387-5.1576-2.7327-0.41307-4.789 0.3432-7.2442 1.4488 0.7038-0.86363 1.3844-2.2105 2.4103-2.7172 0.64033-0.31626 1.4273-0.21259 2.1174-0.31055 0.96464-0.13692 1.884-0.4707 2.7162-0.97748 2.0092-1.2236 3.2196-3.3265 4.1659-5.4123-2.9495 0.0128-4.8635 1.086-7.2442 2.7166 0.5341-0.97705 0.931-2.4837 1.8036-3.2024 0.88542-0.72921 2.4128-0.6273 3.448-1.1672 2.4445-1.2748 4.0119-4.1838 4.347-6.859-2.9765 0.262-4.8832 2.1554-6.7009 4.3465 0.23069-1.1444 0.38561-2.9029 1.1667-3.8118 0.78734-0.91615 2.3739-1.0925 3.3515-1.8223 2.2609-1.688 3.4626-4.9972 3.2694-7.7678-3.1018 1.2274-5.0493 3.6043-6.1576 6.7009h-0.18111c0.19841-1.4697 0.0377-3.9177 0.96182-5.128 0.51956-0.68044 1.425-0.98453 2.1004-1.4788 0.86846-0.63549 1.527-1.489 2.0039-2.4489 1.0226-2.0583 0.91038-4.2876 0.91038-6.5194-3.1973 1.4561-4.6165 4.856-5.071 8.1498h-0.1811c0-1.1463 0.0221-2.2952-0.013-3.441-0.0196-0.63864-0.15282-1.343 0.0337-1.9668 0.40847-1.3659 2.1187-2.1923 2.8108-3.4696 1.4213-2.623 0.86993-5.3612 0.42838-8.1466-2.5334 1.6891-3.3661 4.7212-3.6221 7.6064h-0.1811c-0.0945-1.393-0.74978-2.9664-0.54564-4.3465 0.18517-1.2519 1.3064-2.2409 1.7122-3.441 0.94402-2.7917 0.12342-5.7945-1.1666-8.3309h-0.18111c-1.2986 2.0996-1.9169 4.233-1.9922 6.7009h-0.18111c-0.33215-1.0279-1.0126-2.166-1.0123-3.2599 2.8e-4 -1.0518 0.65454-2.0286 0.77441-3.0788 0.32381-2.8369-0.69685-6.3584-3.022-8.1498-0.78173 2.4117-0.82084 4.3892-0.54332 6.882-0.67646-0.81891-1.6929-1.7696-1.9529-2.8308-0.16564-0.67603 0.12047-1.3929 0.21318-2.0607 0.10912-0.7861 0.0718-1.5744-0.0781-2.3528-0.51032-2.6499-2.4588-5.4193-4.702-6.882-0.29163 3.2754 0.36961 5.7551 1.8111 8.6931-0.82263-0.57525-1.6862-1.1755-2.2372-2.0349-0.76902-1.1993-1.0562-2.596-1.9558-3.7438-1.4731-1.8797-3.7998-2.7948-6.13-2.9144 0.47332 1.9779 1.2867 3.9674 2.9148 5.2785 1.3587 1.0941 2.985 1.2686 4.4906 2.02 1.1314 0.56467 2.0637 1.5701 2.9176 2.4813-2.6444-1.8737-5.5508-2.3778-8.512-0.90554 1.7429 1.7951 4.3665 3.1655 6.882 3.3912 1.169 0.10491 2.7026-0.47399 3.7802 0.0264 1.8361 0.85269 3.1022 3.6876 3.8263 5.4565-2.5628-2.8403-5.223-4.4225-9.0553-3.2599 1.363 1.9287 3.4867 3.6359 5.7954 4.259 1.2131 0.32743 3.0005-0.0955 4.0233 0.69003 1.4126 1.0848 1.8963 3.9187 2.3154 5.5551h-0.18111c-1.5216-3.0656-4.354-4.925-7.7876-4.3466 1.3508 3.5722 4.8138 5.7245 8.512 5.9765l0.72442 4.7088h-0.18111c-1.3085-2.7998-3.4498-3.7049-6.3387-4.1654 0.45334 2.2136 1.8081 4.4068 3.6276 5.7602 0.8612 0.64057 2.3078 0.94056 2.9366 1.8259 0.63452 0.8934 0.49163 2.419 0.49888 3.4613-1.5708-2.0951-2.9664-3.5924-5.6143-4.1654 0.15935 2.1306 0.97028 4.3655 2.4149 5.9663 0.80709 0.89434 2.4214 1.6304 2.8365 2.7922 0.35732 1.0003-0.0426 2.3546-0.18039 3.3756h-0.18111c-0.55026-2.522-2.1474-4.4542-4.7088-5.071 0.0156 2.1805 0.3764 4.4731 1.5828 6.3385 0.64687 1.0002 2.0489 1.8584 2.3799 3.0091 0.35578 1.2369-0.51828 3.059-0.88384 4.2353h-0.18111c-0.0115-2.8226-0.89656-5.6553-3.8032-6.7009-0.39383 2.1745-0.35632 4.4542 0.52021 6.5198 0.4864 1.1462 1.9336 2.4378 1.962 3.6891 0.0315 1.3931-1.1991 3.0403-1.7577 4.2796h-0.18111c0.44124-2.9983 0.40643-6.3916-2.7166-7.9687-0.47184 2.1043-0.99146 4.1756-0.53845 6.3387 0.28161 1.3446 1.6107 2.9927 1.3958 4.3465-0.25859 1.6292-2.0076 3.151-2.8495 4.5277h-0.18111c1.3099-3.0039 2.1087-6.7274-0.90553-9.0553-1.2159 2.2504-1.7889 4.4991-1.5953 7.0631 0.0849 1.125 0.91656 2.5249 0.59674 3.6217-0.48432 1.661-2.9046 3.212-4.2535 4.1658 2.4473-2.8057 3.2499-6.1077 1.2678-9.4175h-0.18111c-1.5052 1.9126-2.7218 4.0583-2.9938 6.5198-0.13834 1.252 0.60006 2.967-0.0241 4.0959-0.7761 1.4038-3.0164 2.3135-4.4074 2.9672 2.5116-2.5723 3.4242-5.1497 2.5355-8.6931-2.2892 1.1304-4.0163 3.7095-4.6089 6.1576-0.25826 1.0669-7e-3 2.5726-0.60377 3.5077-0.87404 1.3696-3.6593 1.8071-5.1104 2.2877v-0.18111c3.309-1.749 4.1647-4.4505 4.1654-7.9687-2.4664 0.69272-4.6523 2.8462-5.827 5.071-0.55992 1.0604-0.80103 3.0985-1.8788 3.7325-0.55782 0.32817-1.2655 0.38034-1.8929 0.46644-1.4428 0.19797-3.3162 0.72917-4.7086 0.12694-1.198-0.51814-2.2652-1.9876-3.6221-2.0522-1.5459-0.0736-2.7107 1.7841-4.1654 2.1642-1.9827 0.51808-4.5328-0.36833-6.5198-0.63474-0.35938-3.7992-3.2144-7.6554-6.882-8.8742-0.54968 3.2521 0.79132 6.2894 3.8032 7.7876v0.1811l-5.071-1.63c-4e-3 -3.9176-1.2576-8.2623-5.071-10.142-0.2077 0.94899-0.4854 1.9187-0.46601 2.8977 0.04935 2.4914 1.5865 4.4047 3.3637 5.9765-1.4383-0.68032-3.9527-1.7027-4.7266-3.1718-0.55471-1.0531 0.06325-2.7265-0.0172-3.8913-0.1729-2.5031-1.3918-5.0062-3.2249-6.7009-1.7515 3.3428-1.1362 6.3211 1.0866 9.2364-1.0816-0.8331-2.1157-1.727-3.0606-2.7144-0.41155-0.43008-0.91033-0.91707-1.0052-1.5336-0.13657-0.88797 0.45228-1.938 0.59714-2.8152 0.34426-2.0846 0.19429-5.0414-1.2112-6.7678-1.0054-1.2349-1.9715 1.1482-2.2113 1.878-0.71842 2.1861 0.04039 4.1528 0.91459 6.1576-1.0077-1.1527-2.7254-2.7683-2.968-4.3466-0.20669-1.3448 1.1193-3.0186 1.4247-4.3465 0.4935-2.1458 6.23e-4 -4.2739-0.62998-6.3387-3.0052 1.5168-3.3372 5.2226-2.5355 8.1498h-0.18111c-0.58222-1.2916-1.9289-3.0642-1.789-4.5276 0.11628-1.2161 1.3037-2.3436 1.8039-3.441 0.98156-2.1532 1.0909-4.6064 0.52842-6.882-2.7368 1.5128-3.79 3.8407-3.8032 6.882h-0.18111c-0.27356-1.2114-1.0869-2.9182-0.74779-4.1522 0.34017-1.2378 1.7715-2.1765 2.434-3.2736 1.1421-1.8912 1.3903-3.9966 1.3926-6.1572-2.5279 0.66677-4.1586 2.5526-4.7088 5.071h-0.18111c-0.04565-1.0482-0.4856-2.524-0.03236-3.5121 0.5339-1.164 2.1532-1.9121 2.98-2.8995 1.308-1.562 1.8641-3.5934 2.3044-5.5414l-0.18111-0.18111c-2.4538 0.58292-4.2914 1.7558-5.2521 4.1654h-0.18111c1.5e-5 -1.0018-0.24388-2.4416 0.32287-3.3245 0.62917-0.98017 2.2161-1.333 3.1148-2.0551 1.7439-1.4012 2.8725-3.4114 3.6255-5.4868-2.9221-0.40642-5.338 1.4154-6.5198 3.9843h-0.18111c0.17331-1.235 0.15961-3.1894 1.0025-4.1787 0.77876-0.91401 2.6463-0.9339 3.7063-1.4555 2.1216-1.0441 3.6943-2.9531 4.7088-5.0511-3.4051-0.51332-6.362 0.95125-7.7876 4.1654h-0.18111c0.27641-1.3024 0.7024-2.5767 1.2239-3.8017 0.25346-0.59536 0.52719-1.3001 1.0914-1.6708 0.98849-0.64943 2.539-0.235 3.6612-0.50615 2.383-0.57582 4.6599-2.3081 5.9765-4.3444-3.6658-1.4604-6.3532 0.56359-8.8742 3.0788 0.66072-1.6702 1.9857-4.454 3.6805-5.2754 1.205-0.58406 3.1168 0.11608 4.4692-0.11412 2.3269-0.39607 4.219-1.682 6.1576-2.9413v-0.36222c-2.785-1.5194-5.4836-0.86805-8.1498 0.54332 0.79218-0.72408 1.5902-1.5132 2.5356-2.0371 1.0227-0.56674 2.2211-0.6957 3.2598-1.2434 2.2157-1.1684 4.1842-3.7158 3.9844-6.3181-2.0239 0.49444-4.0127 1.0274-5.4907 2.6051-1.1774 1.2568-1.4673 2.858-2.3816 4.2429-0.53329 0.80774-1.3663 1.3984-2.0885 2.0262m0.18111 0.72442-0.18111 0.18111 0.18111-0.18111m-6.1576 8.1498-0.18111 0.1811 0.18111-0.1811m-3.0788 7.2442-0.18111 0.18111 0.18111-0.18111m85.663 29.882-0.1811 0.18111 0.1811-0.18111m-4.2258 7.9083-0.0604 0.12073 0.0604-0.12073m-72.563 6.9424-0.18111 0.18111 0.18111-0.18111m67.734 0.18111-0.18111 0.1811 0.18111-0.1811m-61.757 5.6143-0.18111 0.18111 0.18111-0.18111m49.261 4.3466v0.18111l-0.54332 0.1811 0.54332-0.36221m-42.379 0.18111-0.18111 0.1811 0.18111-0.1811m7.2442 2.8977-0.18111 0.18111z" fill="#f7b53c"/><path d="m104.84 100.1a35.07 35.07 0 0 0-35.07 35.07 35.07 35.07 0 0 0 11.16 25.54c0.02366-3.9748 0.78432-7.9351 2.3642-11.956 1.3239-3.3699 2.6722-6.7434 2.9218-10.392 0.07392-1.0805-0.13272-2.2186-0.31006-3.2814-0.71312-4.2738-3.3439-10.761 1.4134-13.694 0.58142-0.35843 1.1837-0.59069 1.8598-0.69712 3.3905-0.53367 6.0042 2.2055 6.3257 5.4214 0.46777 4.6782-2.1406 9.0716-1.4661 13.783 0.41868 2.9239 1.5369 5.6263 2.5921 8.3535 0.37143-1.5456 0.85748-3.096 1.4702-4.6555 1.3239-3.3698 2.6716-6.7434 2.9213-10.392 0.0739-1.0805-0.1322-2.2186-0.30955-3.2814-0.71313-4.2738-3.3439-10.761 1.4134-13.694 0.58143-0.35842 1.1832-0.59068 1.8593-0.69711 3.3905-0.53368 6.0042 2.2056 6.3257 5.4214 0.46777 4.6783-2.1401 9.0717-1.4655 13.783 0.5832 4.0729 2.5232 7.7158 3.76 11.595 0.25977 0.81485 0.4764 1.6364 0.67231 2.4608 1.3064-3.3242 2.6223-6.6555 2.8686-10.255 0.0739-1.0805-0.1322-2.2186-0.30955-3.2814-0.71307-4.2738-3.3439-10.761 1.4134-13.694 0.58137-0.35843 1.1832-0.59068 1.8593-0.69711 3.3905-0.53367 6.0042 2.2055 6.3257 5.4214 0.46772 4.6783-2.1406 9.0717-1.4661 13.783 0.58321 4.0729 2.5237 7.7157 3.7605 11.595 0.89709 2.814 1.411 5.6909 1.5012 8.5907a35.07 35.07 0 0 0 10.679-25.079 35.07 35.07 0 0 0-35.07-35.07z" fill="#222" fill-opacity=".99149" stroke-width=".30788"/><text x="38.357933" y="52.970478" fill="#fdfdfd" font-family="'Century Gothic'" font-size="9.8778px" font-weight="bold" stroke="#ffffff" stroke-width=".26458" style="font-variant-caps:normal;font-variant-east-asian:normal;font-variant-ligatures:normal;font-variant-numeric:normal" xml:space="preserve"><tspan x="38.357933" y="52.970478" font-family="'Century Gothic'" font-size="9.8778px" font-weight="bold" stroke-width=".26458" style="font-variant-caps:normal;font-variant-east-asian:normal;font-variant-ligatures:normal;font-variant-numeric:normal"/></text><text transform="scale(.26458)" fill="#fdfdfd" font-family="'Century Gothic'" font-size="37.333px" font-weight="bold" stroke="#ffffff" style="font-variant-caps:normal;font-variant-east-asian:normal;font-variant-ligatures:normal;font-variant-numeric:normal;shape-inside:url(#rect28701);white-space:pre" xml:space="preserve"/><circle id="path28707" transform="scale(1,-1)" cx="106.05" cy="-131.04" r="55.855" fill-opacity="0" stroke-opacity="0"/><text transform="matrix(-1.0466 .29009 -.31733 -.95673 256.77 234.14)" fill="#222222" font-family="'Century Gothic'" font-size="10.198px" font-weight="bold" stroke="#222222" stroke-width=".27316" style="font-variant-caps:normal;font-variant-east-asian:normal;font-variant-ligatures:normal;font-variant-numeric:normal;shape-subtract:url(#circle28709)" xml:space="preserve"><textPath xlink:href="#path28707"><tspan fill="#222222" stroke="#222222" stroke-width=".27316">Budapesti Tekézők Szövetsége</tspan></textPath></text><circle transform="scale(1,-1)" cx="102.03" cy="-129.95" r="55.855" fill-opacity="0" stroke-opacity="0"/></svg>
