<svg width="24" height="24" viewBox="0 0 24 24" fill="none" xmlns="http://www.w3.org/2000/svg">
<path fill-rule="evenodd" clip-rule="evenodd" d="M3 6C3 5.06812 3 4.60218 3.15224 4.23463C3.35523 3.74458 3.74458 3.35523 4.23463 3.15224C4.60218 3 5.06812 3 6 3H18C18.9319 3 19.3978 3 19.7654 3.15224C20.2554 3.35523 20.6448 3.74458 20.8478 4.23463C21 4.60218 21 5.06812 21 6C21 6.93188 21 7.39782 20.8478 7.76537C20.6448 8.25542 20.2554 8.64477 19.7654 8.84776C19.3978 9 18.9319 9 18 9H6C5.06812 9 4.60218 9 4.23463 8.84776C3.74458 8.64477 3.35523 8.25542 3.15224 7.76537C3 7.39782 3 6.93188 3 6ZM10 14.2C10 13.0799 10 12.5198 10.218 12.092C10.4097 11.7157 10.7157 11.4097 11.092 11.218C11.5198 11 12.0799 11 13.2 11H17.8C18.9201 11 19.4802 11 19.908 11.218C20.2843 11.4097 20.5903 11.7157 20.782 12.092C21 12.5198 21 13.0799 21 14.2V17.8C21 18.9201 21 19.4802 20.782 19.908C20.5903 20.2843 20.2843 20.5903 19.908 20.782C19.4802 21 18.9201 21 17.8 21H13.2C12.0799 21 11.5198 21 11.092 20.782C10.7157 20.5903 10.4097 20.2843 10.218 19.908C10 19.4802 10 18.9201 10 17.8V14.2ZM3.03843 12.6098C3 12.803 3 13.0353 3 13.5V18.5C3 18.9647 3 19.197 3.03843 19.3902C3.19624 20.1836 3.81644 20.8038 4.60982 20.9616C4.80302 21 5.03534 21 5.5 21C5.96466 21 6.19698 21 6.39018 20.9616C7.18356 20.8038 7.80376 20.1836 7.96157 19.3902C8 19.197 8 18.9647 8 18.5V13.5C8 13.0353 8 12.803 7.96157 12.6098C7.80376 11.8164 7.18356 11.1962 6.39018 11.0384C6.19698 11 5.96466 11 5.5 11C5.03534 11 4.80302 11 4.60982 11.0384C3.81644 11.1962 3.19624 11.8164 3.03843 12.6098Z" fill="currentColor"/>
</svg>
